<svg viewBox="0 0 16 16" fill="none" xmlns="http://www.w3.org/2000/svg">
<path fill-rule="evenodd" clip-rule="evenodd" d="M7.99998 14.6667C4.31798 14.6667 1.33331 11.682 1.33331 8C1.33331 4.318 4.31798 1.33333 7.99998 1.33333C11.682 1.33333 14.6666 4.318 14.6666 8C14.6666 11.682 11.682 14.6667 7.99998 14.6667ZM7.99999 13.3333C10.9455 13.3333 13.3333 10.9455 13.3333 8C13.3333 5.05448 10.9455 2.66666 7.99999 2.66666C5.05447 2.66666 2.66666 5.05448 2.66666 8C2.66666 10.9455 5.05447 13.3333 7.99999 13.3333ZM4.50665 7.83798L7.33532 10.6666L12.0493 5.95265L11.106 5.00998L7.33532 8.78131L5.44932 6.89531L4.50665 7.83798Z"/>
</svg>
