<svg viewBox="0 0 32 32" fill="none" xmlns="http://www.w3.org/2000/svg">
<path fill-rule="evenodd" clip-rule="evenodd" d="M29.3334 12C29.3334 7.33333 26.0507 4 22.0001 4C19.5201 4 17.3334 5.33333 16.0001 6.66667C14.6667 5.33333 12.4801 4 10.0001 4C6.00008 4 2.66675 7.33333 2.66675 12C2.66675 20.8012 11.559 26.0455 15.368 28.2919C15.5983 28.4278 15.81 28.5526 16.0001 28.6667C16.1901 28.5526 16.4018 28.4278 16.6322 28.2919C20.4412 26.0455 29.3334 20.8012 29.3334 12ZM20.4721 22.5373C19.4801 23.3267 18.4201 24.064 17.2454 24.8053C16.8467 25.056 16.4521 25.2973 16.0001 25.5667C15.5481 25.2973 15.1534 25.056 14.7547 24.804C13.5801 24.064 12.5201 23.3267 11.5267 22.5373C7.55475 19.3773 5.33341 15.9253 5.33341 12C5.33341 8.87467 7.41341 6.66667 10.0001 6.66667C11.4347 6.66667 12.9867 7.42667 14.1147 8.552L16.0001 10.4373L17.8854 8.552C19.0134 7.42667 20.5654 6.66667 22.0001 6.66667C24.6174 6.66667 26.6667 8.85333 26.6667 12C26.6667 15.924 24.4467 19.3773 20.4721 22.5373Z" />
</svg>
