<svg viewBox="0 0 160 160" fill="none" xmlns="http://www.w3.org/2000/svg">
<mask id="mask0_828_304" style="mask-type:alpha" maskUnits="userSpaceOnUse" x="29" y="16" width="102" height="129">
<path d="M110.138 72.3658C112.92 71.2849 115.81 70.4884 118.757 69.9935V30.0802L93.2992 55.5323L110.133 72.3658H110.138ZM41.536 70.0902C44.4316 70.6136 47.2704 71.4271 50.0067 72.5194L66.9937 55.5323L41.536 30.0802V70.0902ZM77.1598 121.216C77.4784 122.451 78.5934 123.321 79.8734 123.321C81.1534 123.321 82.2627 122.456 82.5813 121.233C82.1432 118.713 81.9214 116.159 81.9214 113.599C81.9214 101.829 86.5521 90.6498 94.875 82.327C97.1562 80.0458 99.6821 78.0205 102.396 76.2854L84.7829 58.6783C84.3392 58.2346 84.0035 57.6998 83.7987 57.1025C83.1104 55.5494 83.446 53.7233 84.652 52.5172L119.895 17.2802C120.674 16.461 121.749 16.0002 122.881 16.0002C123.615 16.0002 124.338 16.1937 124.969 16.5634L125.077 16.6317L125.163 16.6829C125.242 16.7398 125.322 16.7967 125.396 16.8536L125.51 16.9446L125.561 16.9901C125.726 17.1266 125.874 17.2802 126.016 17.4452L126.084 17.5306L126.164 17.6273L126.209 17.6955L126.272 17.7752L126.335 17.8719L126.386 17.9572L126.482 18.1222C126.824 18.7366 127.006 19.425 127.006 20.1247V74.0155C127.006 76.1546 125.35 77.9466 123.223 78.1229C122.631 78.1741 122.045 78.1969 121.471 78.2594L121.311 78.2822C113.597 79.3858 106.458 82.8845 100.939 88.397C94.2378 95.1042 90.5002 104.115 90.5002 113.599C90.5002 114.162 90.5116 114.725 90.54 115.288C92.2126 113.343 93.9648 111.477 95.7966 109.679C102.663 102.944 110.559 97.3286 119.184 93.0676L112.255 86.1386L113.005 85.7802C115.423 84.6253 117.978 83.7606 120.606 83.2088L120.919 83.1462L128.661 90.8945C129.122 91.3553 129.839 92.3679 130.089 92.9652C130.988 95.1384 129.947 97.6586 127.774 98.5631C118.103 102.597 109.274 108.445 101.793 115.783C94.3004 123.128 88.3612 131.889 84.0604 141.446L84.0092 141.554L83.9637 141.645L83.9182 141.736L83.8613 141.838L83.8158 141.907C83.7475 142.026 83.6735 142.134 83.5996 142.242L83.5029 142.373L83.3834 142.515L83.281 142.629L83.1502 142.76L83.025 142.88L82.9056 142.988L82.7349 143.124L82.6609 143.181C82.5585 143.261 82.4448 143.335 82.331 143.397L82.24 143.454L82.1489 143.5L82.0522 143.545L81.9555 143.596L81.8531 143.648L81.6483 143.727L81.58 143.75C81.1932 143.892 80.7893 143.977 80.3797 143.995H80.2545L80.0896 144H79.8904C79.4808 143.972 79.0712 143.886 78.6844 143.744L78.5592 143.693L78.3886 143.625L78.2919 143.585L78.2008 143.539L78.1098 143.494L78.0131 143.437L77.9448 143.397C77.8311 143.329 77.7173 143.255 77.6149 143.181L77.484 143.084L77.3418 142.971L77.228 142.868L77.0915 142.737L76.972 142.612L76.8696 142.493L76.7331 142.322L76.6819 142.248C76.6023 142.14 76.5283 142.032 76.46 141.912L76.4088 141.821L76.3633 141.736L76.3121 141.639L76.2609 141.537L76.2154 141.452C71.9146 131.894 65.9754 123.128 58.4832 115.789C51.0023 108.45 42.1788 102.597 32.502 98.5688C30.3345 97.6642 29.2878 95.1441 30.1923 92.9709C30.4426 92.3736 31.1594 91.3553 31.6259 90.9002L39.2604 83.26L39.579 83.3339C42.0707 83.9085 44.5056 84.7562 46.7982 85.8826L47.8051 86.3775L41.0979 93.079C49.7166 97.34 57.6184 102.955 64.4849 109.691C66.129 111.306 67.7105 112.979 69.2238 114.708C69.2352 114.344 69.2408 113.974 69.2408 113.61C69.2408 104.121 65.5089 95.1099 58.8017 88.4084C53.824 83.425 47.4865 80.023 40.5745 78.652C39.8008 78.4984 39.0272 78.3675 38.2478 78.2708L38.1681 78.2594C37.8552 78.2196 37.5424 78.1741 37.2408 78.1514C35.0336 78.0717 33.2757 76.2399 33.2757 74.0326V20.1247C33.2871 17.8434 35.1303 16.0002 37.4115 16.0002C38.5379 16.0002 39.6017 16.4554 40.3754 17.2575L75.5498 52.4319C76.5795 53.4616 76.9891 54.9464 76.6364 56.3515C76.5169 57.2504 76.1073 58.0753 75.4645 58.7181L57.681 76.5016C60.2752 78.1855 62.6929 80.1425 64.8775 82.3327C73.1946 90.6498 77.8254 101.834 77.8254 113.605C77.8254 116.153 77.5978 118.707 77.1598 121.222V121.216Z" fill="black"/>
</mask>
<g mask="url(#mask0_828_304)">
<path d="M130.994 16.0002H29.2992V144H130.994V16.0002Z" fill="url(#paint0_linear_828_304)"/>
</g>
<defs>
<linearGradient id="paint0_linear_828_304" x1="37.093" y1="114.281" x2="142.104" y2="30.6662" gradientUnits="userSpaceOnUse">
<stop stop-color="#FF1E00"/>
<stop offset="1" stop-color="#FFB700"/>
</linearGradient>
</defs>
</svg>
