<svg viewBox="0 0 32 32" fill="none" xmlns="http://www.w3.org/2000/svg">
<path fill-rule="evenodd" clip-rule="evenodd" d="M29.752 27.8653L24.0413 22.156C25.7443 20.0317 26.6705 17.3893 26.6667 14.6667C26.6667 8.04267 21.2907 2.66667 14.6667 2.66667C8.04267 2.66667 2.66667 8.04267 2.66667 14.6667C2.66667 21.2907 8.04267 26.6667 14.6667 26.6667C17.3893 26.6705 20.0317 25.7443 22.156 24.0413L27.8653 29.752L29.752 27.8653ZM24 14.6667C24.0038 17.0939 23.0588 19.4265 21.3667 21.1667L21.1667 21.3667C19.4265 23.0588 17.0939 24.0038 14.6667 24C9.50934 24 5.33334 19.8227 5.33334 14.6667C5.33334 9.50934 9.50934 5.33334 14.6667 5.33334C19.8227 5.33334 24 9.50934 24 14.6667Z" />
</svg>
