<svg viewBox="0 0 32 32" fill="none" xmlns="http://www.w3.org/2000/svg">
<path d="M23.1147 16.9008L22.1982 16.0508L23.1147 16.9008ZM15.0992 8.88532L15.9492 9.80182L15.0992 8.88532ZM26.9205 7.22407L28.1599 7.38618L26.9205 7.22407ZM24.7759 5.07954L24.938 6.31898L24.7759 5.07954ZM9.72828 16.7214L10.8507 17.2716L9.72828 16.7214ZM15.2786 22.2717L14.7284 21.1493L15.2786 22.2717ZM8.35131 22.7173C8.83947 22.2291 8.83947 21.4377 8.35131 20.9495C7.86316 20.4613 7.0717 20.4613 6.58354 20.9495L8.35131 22.7173ZM3.37735 24.1557C2.8892 24.6438 2.8892 25.4353 3.37735 25.9235C3.86551 26.4116 4.65696 26.4116 5.14512 25.9235L3.37735 24.1557ZM10.756 25.1219C11.2441 24.6338 11.2441 23.8423 10.756 23.3541C10.2678 22.866 9.47634 22.866 8.98819 23.3541L10.756 25.1219ZM7.38509 24.9572C6.89694 25.4454 6.89694 26.2369 7.38509 26.725C7.87325 27.2132 8.6647 27.2132 9.15286 26.725L7.38509 24.9572ZM14.3778 26.2789L15.6153 26.1021L14.3778 26.2789ZM20.2291 22.3513L21.4666 22.1745L20.2291 22.3513ZM5.7211 17.6222L5.89788 16.3847L5.89788 16.3847L5.7211 17.6222ZM9.64869 11.7709L9.47191 13.0083L9.47191 13.0083L9.64869 11.7709ZM13.7017 20.9495L11.0505 18.2983L9.28273 20.066L11.934 22.7173L13.7017 20.9495ZM22.1982 16.0508C20.1057 18.3069 16.6793 20.1929 14.7284 21.1493L15.8289 23.3941C17.8057 22.425 21.6004 20.3717 24.0312 17.7508L22.1982 16.0508ZM10.8507 17.2716C11.8071 15.3207 13.6931 11.8943 15.9492 9.80182L14.2492 7.96882C11.6283 10.3996 9.57501 14.1943 8.6059 16.1711L10.8507 17.2716ZM25.681 7.06197C25.3378 9.68612 24.4333 13.6409 22.1982 16.0508L24.0312 17.7508C26.8381 14.7244 27.8089 10.0698 28.1599 7.38618L25.681 7.06197ZM15.9492 9.80182C18.3591 7.56673 22.3139 6.66219 24.938 6.31898L24.6138 3.84009C21.9302 4.19107 17.2756 5.16192 14.2492 7.96882L15.9492 9.80182ZM28.1599 7.38618C28.4332 5.29635 26.7036 3.56677 24.6138 3.84009L24.938 6.31898C25.1882 6.28627 25.3803 6.36974 25.5053 6.49472C25.6303 6.61971 25.7137 6.81184 25.681 7.06197L28.1599 7.38618ZM11.0505 18.2983C10.752 17.9998 10.6944 17.5902 10.8507 17.2716L8.6059 16.1711C7.9499 17.5092 8.27654 19.0598 9.28273 20.066L11.0505 18.2983ZM11.934 22.7173C12.9402 23.7235 14.4908 24.0501 15.8289 23.3941L14.7284 21.1493C14.4098 21.3056 14.0002 21.248 13.7017 20.9495L11.934 22.7173ZM6.58354 20.9495L3.37735 24.1557L5.14512 25.9235L8.35131 22.7173L6.58354 20.9495ZM8.98819 23.3541L7.38509 24.9572L9.15286 26.725L10.756 25.1219L8.98819 23.3541ZM17.0208 10.0053C15.6473 11.3788 15.6473 13.6057 17.0208 14.9792L18.7885 13.2115C18.3913 12.8142 18.3913 12.1702 18.7885 11.773L17.0208 10.0053ZM17.0208 14.9792C18.3943 16.3527 20.6212 16.3527 21.9947 14.9792L20.227 13.2115C19.8298 13.6087 19.1858 13.6087 18.7885 13.2115L17.0208 14.9792ZM21.9947 14.9792C23.3683 13.6057 23.3683 11.3788 21.9947 10.0053L20.227 11.773C20.6242 12.1702 20.6242 12.8142 20.227 13.2115L21.9947 14.9792ZM21.9947 10.0053C20.6212 8.63174 18.3943 8.63174 17.0208 10.0053L18.7885 11.773C19.1858 11.3758 19.8298 11.3758 20.227 11.773L21.9947 10.0053ZM19.0246 22.4293L15.4177 26.0362L17.1854 27.804L20.7924 24.197L19.0246 22.4293ZM15.6153 26.1021L15.1344 22.7356L12.6595 23.0891L13.1404 26.4556L15.6153 26.1021ZM18.6711 20.2837L18.9917 22.5281L21.4666 22.1745L21.146 19.9302L18.6711 20.2837ZM15.4177 26.0362C15.4255 26.0284 15.448 26.013 15.4789 26.0064C15.5048 26.0008 15.5242 26.0039 15.5368 26.0081C15.5494 26.0123 15.5668 26.0215 15.5842 26.0415C15.605 26.0653 15.6137 26.0911 15.6153 26.1021L13.1404 26.4556C13.4182 28.4001 15.7966 29.1929 17.1854 27.804L15.4177 26.0362ZM20.7924 24.197C21.3229 23.6665 21.5727 22.9172 21.4666 22.1745L18.9917 22.5281C18.9865 22.4918 18.9987 22.4552 19.0246 22.4293L20.7924 24.197ZM7.80295 11.2076L4.19598 14.8146L5.96375 16.5823L9.57071 12.9754L7.80295 11.2076ZM5.54433 18.8596L8.91083 19.3405L9.26438 16.8657L5.89788 16.3847L5.54433 18.8596ZM12.0698 10.8541L9.82546 10.5334L9.47191 13.0083L11.7162 13.3289L12.0698 10.8541ZM4.19598 14.8146C2.80711 16.2034 3.59991 18.5818 5.54433 18.8596L5.89788 16.3847C5.9089 16.3863 5.93465 16.3951 5.95848 16.4158C5.97849 16.4332 5.98768 16.4506 5.99188 16.4632C5.99607 16.4758 5.99915 16.4952 5.99359 16.5211C5.98697 16.552 5.97162 16.5745 5.96375 16.5823L4.19598 14.8146ZM9.57071 12.9754C9.5448 13.0013 9.50819 13.0135 9.47191 13.0083L9.82547 10.5334C9.08276 10.4273 8.33345 10.6771 7.80295 11.2076L9.57071 12.9754Z" />
</svg>
