<svg viewBox="0 0 62 62" fill="none" xmlns="http://www.w3.org/2000/svg">
<path d="M31 2.015C31 0.902147 31.9032 -0.00682207 33.0137 0.0654566C38.4366 0.418416 43.6845 2.19214 48.2227 5.22444C53.3206 8.63077 57.2939 13.4723 59.6403 19.1368C61.9866 24.8013 62.6005 31.0344 61.4043 37.0478C60.2082 43.0612 57.2557 48.5849 52.9203 52.9203C48.5849 57.2557 43.0612 60.2082 37.0478 61.4043C31.0344 62.6005 24.8013 61.9866 19.1368 59.6403C13.4723 57.2939 8.63076 53.3206 5.22444 48.2227C2.19214 43.6845 0.418416 38.4366 0.0654565 33.0137C-0.00682208 31.9032 0.902147 31 2.015 31C3.12785 31 4.02217 31.9034 4.10523 33.0132C4.4514 37.6383 5.98589 42.1085 8.57526 45.9837C11.5388 50.4189 15.7509 53.8757 20.679 55.917C25.6072 57.9583 31.0299 58.4924 36.2616 57.4518C41.4933 56.4111 46.2988 53.8425 50.0707 50.0707C53.8425 46.2988 56.4111 41.4933 57.4518 36.2616C58.4924 31.0299 57.9583 25.6072 55.917 20.679C53.8757 15.7509 50.4189 11.5388 45.9837 8.57526C42.1085 5.98589 37.6383 4.4514 33.0132 4.10523C31.9034 4.02217 31 3.12785 31 2.015Z" />
</svg>
