<svg viewBox="0 0 32 32" fill="none" xmlns="http://www.w3.org/2000/svg">
<path d="M5.33008 30.5656C5.33008 27.7371 6.45371 25.0244 8.45378 23.0243C10.4539 21.0243 13.1665 19.9006 15.9951 19.9006C18.8236 19.9006 21.5363 21.0243 23.5364 23.0243C25.5364 25.0244 26.6601 27.7371 26.6601 30.5656H23.9938C23.9938 28.4442 23.1511 26.4097 21.651 24.9097C20.151 23.4096 18.1165 22.5669 15.9951 22.5669C13.8737 22.5669 11.8392 23.4096 10.3391 24.9097C8.83905 26.4097 7.99633 28.4442 7.99633 30.5656H5.33008ZM15.9951 18.5675C11.5758 18.5675 7.99633 14.9881 7.99633 10.5688C7.99633 6.14945 11.5758 2.57001 15.9951 2.57001C20.4144 2.57001 23.9938 6.14945 23.9938 10.5688C23.9938 14.9881 20.4144 18.5675 15.9951 18.5675ZM15.9951 15.9013C18.9413 15.9013 21.3276 13.515 21.3276 10.5688C21.3276 7.62255 18.9413 5.23626 15.9951 5.23626C13.0489 5.23626 10.6626 7.62255 10.6626 10.5688C10.6626 13.515 13.0489 15.9013 15.9951 15.9013Z" />
</svg>
