<svg viewBox="0 0 32 32" fill="none" xmlns="http://www.w3.org/2000/svg">
<g clip-path="url(#clip0_115_435)">
<path d="M23.9998 9.33333H27.9998C28.3535 9.33333 28.6926 9.47381 28.9426 9.72386C29.1927 9.97391 29.3332 10.313 29.3332 10.6667V26.6667C29.3332 27.0203 29.1927 27.3594 28.9426 27.6095C28.6926 27.8595 28.3535 28 27.9998 28H3.99984C3.64622 28 3.30708 27.8595 3.05703 27.6095C2.80698 27.3594 2.6665 27.0203 2.6665 26.6667V5.33333C2.6665 4.97971 2.80698 4.64057 3.05703 4.39052C3.30708 4.14048 3.64622 4 3.99984 4H23.9998V9.33333ZM5.33317 12V25.3333H26.6665V12H5.33317ZM5.33317 6.66667V9.33333H21.3332V6.66667H5.33317ZM19.9998 17.3333H23.9998V20H19.9998V17.3333Z" />
</g>
</svg>
